<svg version="1.1" id="Layer_1" xmlns="http://www.w3.org/2000/svg" xmlns:xlink="http://www.w3.org/1999/xlink" x="0px" y="0px"
	 width="100%" viewBox="0 0 500 500" enable-background="new 0 0 500 500" xml:space="preserve">
<path fill="#224C8D" opacity="1.000000" stroke="none" 
	d="
M316.000000,501.000000 
	C210.666687,501.000000 105.833382,501.000000 1.000056,501.000000 
	C1.000037,334.333405 1.000037,167.666794 1.000019,1.000146 
	C167.666565,1.000097 334.333130,1.000097 500.999756,1.000049 
	C500.999847,167.666519 500.999847,334.333038 500.999939,500.999786 
	C439.500000,501.000000 378.000000,501.000000 316.000000,501.000000 
M397.500061,104.157753 
	C371.422913,104.157753 345.345734,104.157753 319.332397,104.157753 
	C319.332397,114.509277 319.332397,124.096214 319.332397,134.161255 
	C354.014893,134.161255 388.401581,134.161255 423.250183,134.161255 
	C423.250183,209.348572 423.250183,284.051971 423.250183,358.692749 
	C434.298828,358.692749 444.876678,358.692749 455.393127,358.692749 
	C455.393127,273.716064 455.393127,189.052277 455.393127,104.157753 
	C436.136383,104.157753 417.318237,104.157753 397.500061,104.157753 
M78.956146,343.500000 
	C78.956146,276.765717 78.956146,210.031433 78.956146,143.280304 
	C67.747643,143.280304 57.169392,143.280304 46.577011,143.280304 
	C46.577011,228.233383 46.577011,312.900543 46.577011,397.486023 
	C92.217758,397.486023 137.444870,397.486023 182.693146,397.486023 
	C182.693146,387.542023 182.693146,377.956665 182.693146,367.890472 
	C148.036758,367.890472 113.650124,367.890472 78.956146,367.890472 
	C78.956146,359.771881 78.956146,352.135956 78.956146,343.500000 
M254.974915,185.424561 
	C239.653992,238.981247 224.315369,292.532867 209.029083,346.099457 
	C206.402054,355.305176 210.021225,363.977844 217.650253,365.665039 
	C225.711807,367.447845 233.603912,366.106781 237.005753,354.198425 
	C256.006470,287.685059 275.041168,221.181366 294.035614,154.666183 
	C296.821747,144.909637 293.108887,137.293564 284.510132,134.778992 
	C275.986969,132.286514 268.843994,136.912018 266.018036,146.754166 
	C262.392975,159.379349 258.768188,172.004608 254.974915,185.424561 
M165.666458,274.833893 
	C157.506729,266.822418 149.347015,258.810974 141.038345,250.653290 
	C142.784897,248.812363 143.890442,247.591232 145.054550,246.428696 
	C156.960083,234.538940 168.917053,222.700333 180.771088,210.759521 
	C187.386703,204.095459 187.777542,195.263000 181.923065,189.432648 
	C175.810516,183.345337 167.257828,183.408203 160.584549,189.992401 
	C143.863922,206.489853 127.229950,223.076340 110.681572,239.746582 
	C104.577469,245.895615 104.256874,254.183578 110.252518,260.302765 
	C127.040695,277.436890 143.993484,294.413879 161.109467,311.220520 
	C167.590424,317.584351 176.191238,317.254669 182.062180,311.175781 
	C187.605347,305.436279 187.373306,296.885590 181.318939,290.572449 
	C176.361633,285.403229 171.224045,280.406921 165.666458,274.833893 
M352.956665,300.456726 
	C365.908936,287.485931 378.909271,274.562622 391.794373,261.525421 
	C398.802734,254.434311 398.994171,246.312317 392.208679,239.483292 
	C375.765411,222.934540 359.248901,206.457367 342.638947,190.076035 
	C335.908295,183.438019 327.450897,183.316162 321.301086,189.354263 
	C315.328339,195.218536 315.653870,203.990021 322.289459,210.675186 
	C334.145752,222.620117 346.100128,234.467636 358.004791,246.364578 
	C359.274780,247.633728 360.486694,248.960968 362.164185,250.721634 
	C348.747925,263.958679 335.535187,276.896179 322.442322,289.953827 
	C315.692505,296.685486 315.289398,305.313782 321.173431,311.257935 
	C327.402100,317.550262 335.817810,317.284912 342.902893,310.491058 
	C346.149658,307.377777 349.275818,304.138733 352.956665,300.456726 
z"/>
<path fill="#FDFDFE" opacity="1.000000" stroke="none" 
	d="
M398.000061,104.157753 
	C417.318237,104.157753 436.136383,104.157753 455.393127,104.157753 
	C455.393127,189.052277 455.393127,273.716064 455.393127,358.692749 
	C444.876678,358.692749 434.298828,358.692749 423.250183,358.692749 
	C423.250183,284.051971 423.250183,209.348572 423.250183,134.161255 
	C388.401581,134.161255 354.014893,134.161255 319.332397,134.161255 
	C319.332397,124.096214 319.332397,114.509277 319.332397,104.157753 
	C345.345734,104.157753 371.422913,104.157753 398.000061,104.157753 
z"/>
<path fill="#FDFDFE" opacity="1.000000" stroke="none" 
	d="
M78.956146,344.000000 
	C78.956146,352.135956 78.956146,359.771881 78.956146,367.890472 
	C113.650124,367.890472 148.036758,367.890472 182.693146,367.890472 
	C182.693146,377.956665 182.693146,387.542023 182.693146,397.486023 
	C137.444870,397.486023 92.217758,397.486023 46.577011,397.486023 
	C46.577011,312.900543 46.577011,228.233383 46.577011,143.280304 
	C57.169392,143.280304 67.747643,143.280304 78.956146,143.280304 
	C78.956146,210.031433 78.956146,276.765717 78.956146,344.000000 
z"/>
<path fill="#F6F7F8" opacity="1.000000" stroke="none" 
	d="
M255.059113,185.027191 
	C258.768188,172.004608 262.392975,159.379349 266.018036,146.754166 
	C268.843994,136.912018 275.986969,132.286514 284.510132,134.778992 
	C293.108887,137.293564 296.821747,144.909637 294.035614,154.666183 
	C275.041168,221.181366 256.006470,287.685059 237.005753,354.198425 
	C233.603912,366.106781 225.711807,367.447845 217.650253,365.665039 
	C210.021225,363.977844 206.402054,355.305176 209.029083,346.099457 
	C224.315369,292.532867 239.653992,238.981247 255.059113,185.027191 
z"/>
<path fill="#F6F8F8" opacity="1.000000" stroke="none" 
	d="
M165.916412,275.083923 
	C171.224045,280.406921 176.361633,285.403229 181.318939,290.572449 
	C187.373306,296.885590 187.605347,305.436279 182.062180,311.175781 
	C176.191238,317.254669 167.590424,317.584351 161.109467,311.220520 
	C143.993484,294.413879 127.040695,277.436890 110.252518,260.302765 
	C104.256874,254.183578 104.577469,245.895615 110.681572,239.746582 
	C127.229950,223.076340 143.863922,206.489853 160.584549,189.992401 
	C167.257828,183.408203 175.810516,183.345337 181.923065,189.432648 
	C187.777542,195.263000 187.386703,204.095459 180.771088,210.759521 
	C168.917053,222.700333 156.960083,234.538940 145.054550,246.428696 
	C143.890442,247.591232 142.784897,248.812363 141.038345,250.653290 
	C149.347015,258.810974 157.506729,266.822418 165.916412,275.083923 
z"/>
<path fill="#F6F8F8" opacity="1.000000" stroke="none" 
	d="
M352.706665,300.706726 
	C349.275818,304.138733 346.149658,307.377777 342.902893,310.491058 
	C335.817810,317.284912 327.402100,317.550262 321.173431,311.257935 
	C315.289398,305.313782 315.692505,296.685486 322.442322,289.953827 
	C335.535187,276.896179 348.747925,263.958679 362.164185,250.721634 
	C360.486694,248.960968 359.274780,247.633728 358.004791,246.364578 
	C346.100128,234.467636 334.145752,222.620117 322.289459,210.675186 
	C315.653870,203.990021 315.328339,195.218536 321.301086,189.354263 
	C327.450897,183.316162 335.908295,183.438019 342.638947,190.076035 
	C359.248901,206.457367 375.765411,222.934540 392.208679,239.483292 
	C398.994171,246.312317 398.802734,254.434311 391.794373,261.525421 
	C378.909271,274.562622 365.908936,287.485931 352.706665,300.706726 
z"/>
</svg>